<?xml version="1.0" standalone="no"?>
<!DOCTYPE svg PUBLIC "-//W3C//DTD SVG 20010904//EN"
 "http://www.w3.org/TR/2001/REC-SVG-20010904/DTD/svg10.dtd">
<svg version="1.0" xmlns="http://www.w3.org/2000/svg"
 width="200.000000pt" height="200.000000pt" viewBox="0 0 200.000000 200.000000"
 preserveAspectRatio="xMidYMid meet">

<g transform="translate(0.000000,200.000000) scale(0.100000,-0.100000)"
fill="#000000" stroke="none">
<path d="M370 1340 l0 -290 55 0 55 0 0 290 0 290 -55 0 -55 0 0 -290z"/>
<path d="M770 966 l0 -456 178 -2 c283 -5 346 6 415 71 86 79 97 229 24 322
-33 42 -59 61 -112 80 l-29 10 39 18 c79 36 117 98 117 191 0 92 -39 156 -120
197 -32 16 -68 18 -274 21 l-238 3 0 -455z m467 328 c42 -31 54 -62 50 -123
-3 -47 -9 -59 -40 -87 -48 -44 -90 -54 -239 -54 l-128 0 0 144 0 145 33 3 c17
2 91 1 164 -2 113 -4 136 -8 160 -26z m-8 -379 c116 -68 114 -229 -4 -293 -24
-13 -61 -17 -185 -17 l-155 0 -3 155 c-1 85 0 160 3 168 4 11 35 13 158 10
130 -3 157 -6 186 -23z"/>
</g>
</svg>
